<svg width="32" height="32" viewBox="0 0 32 32" fill="none" xmlns="http://www.w3.org/2000/svg">
  <!-- Premium black background -->
  <rect width="32" height="32" rx="6" fill="#000000"/>
  
  <!-- Stacked Blocks - Isometric Style -->
  
  <!-- Top Block (largest) -->
  <g transform="translate(16, 8)">
    <!-- Top face -->
    <path d="M0 0 L8 -2 L0 -4 L-8 -2 Z" fill="#60A5FA"/>
    <!-- Left side -->
    <path d="M-8 -2 L0 0 L0 3 L-8 1 Z" fill="#3B82F6"/>
    <!-- Right side -->
    <path d="M0 0 L8 -2 L8 1 L0 3 Z" fill="#2563EB"/>
  </g>
  
  <!-- Middle Block -->
  <g transform="translate(16, 15)">
    <!-- Top face -->
    <path d="M0 0 L6 -1.5 L0 -3 L-6 -1.5 Z" fill="#60A5FA"/>
    <!-- Left side -->
    <path d="M-6 -1.5 L0 0 L0 3 L-6 1.5 Z" fill="#3B82F6"/>
    <!-- Right side -->
    <path d="M0 0 L6 -1.5 L6 1.5 L0 3 Z" fill="#2563EB"/>
  </g>
  
  <!-- Bottom Block (smallest) -->
  <g transform="translate(16, 22)">
    <!-- Top face -->
    <path d="M0 0 L4 -1 L0 -2 L-4 -1 Z" fill="#60A5FA"/>
    <!-- Left side -->
    <path d="M-4 -1 L0 0 L0 2.5 L-4 1.5 Z" fill="#3B82F6"/>
    <!-- Right side -->
    <path d="M0 0 L4 -1 L4 1.5 L0 2.5 Z" fill="#2563EB"/>
  </g>
  
  <!-- Connecting depth lines -->
  <line x1="8" y1="6" x2="10" y2="13.5" stroke="#3B82F6" stroke-width="0.3" opacity="0.4"/>
  <line x1="24" y1="6" x2="22" y2="13.5" stroke="#3B82F6" stroke-width="0.3" opacity="0.4"/>
  <line x1="10" y1="13.5" x2="12" y2="21" stroke="#2563EB" stroke-width="0.3" opacity="0.3"/>
  <line x1="22" y1="13.5" x2="20" y2="21" stroke="#2563EB" stroke-width="0.3" opacity="0.3"/>
</svg>