<svg width="32" height="32" viewBox="0 0 32 32" fill="none" xmlns="http://www.w3.org/2000/svg">
  <!-- Premium black background -->
  <rect width="32" height="32" rx="6" fill="#000000"/>
  
  <!-- Stacked Square Blocks - All Same Size, Connected -->
  
  <!-- Bottom Block -->
  <g transform="translate(16, 22)">
    <!-- Top face (perfect square) -->
    <rect x="-4" y="-2" width="8" height="4" fill="#60A5FA"/>
    <!-- Left side -->
    <path d="M-4 2 L-4 -2 L-6 0 L-6 4 Z" fill="#3B82F6"/>
    <!-- Right side -->
    <path d="M4 -2 L4 2 L6 4 L6 0 Z" fill="#2563EB"/>
    <!-- Front side -->
    <path d="M-4 2 L4 2 L6 4 L-6 4 Z" fill="#1E40AF"/>
  </g>
  
  <!-- Middle Block -->
  <g transform="translate(16, 16)">
    <!-- Top face (perfect square) -->
    <rect x="-4" y="-2" width="8" height="4" fill="#60A5FA"/>
    <!-- Left side -->
    <path d="M-4 2 L-4 -2 L-6 0 L-6 4 Z" fill="#3B82F6"/>
    <!-- Right side -->
    <path d="M4 -2 L4 2 L6 4 L6 0 Z" fill="#2563EB"/>
    <!-- Front side -->
    <path d="M-4 2 L4 2 L6 4 L-6 4 Z" fill="#1E40AF"/>
  </g>
  
  <!-- Top Block -->
  <g transform="translate(16, 10)">
    <!-- Top face (perfect square) -->
    <rect x="-4" y="-2" width="8" height="4" fill="#60A5FA"/>
    <!-- Left side -->
    <path d="M-4 2 L-4 -2 L-6 0 L-6 4 Z" fill="#3B82F6"/>
    <!-- Right side -->
    <path d="M4 -2 L4 2 L6 4 L6 0 Z" fill="#2563EB"/>
    <!-- Front side -->
    <path d="M-4 2 L4 2 L6 4 L-6 4 Z" fill="#1E40AF"/>
  </g>
</svg>